<svg width="9" height="12" viewBox="0 0 9 12" fill="none" xmlns="http://www.w3.org/2000/svg">
<path d="M4.5 0C5.69347 0 6.83807 0.520324 7.68198 1.44651C8.52589 2.37269 9 3.62886 9 4.93868C9 7.02559 7.66385 9.29991 5.02615 11.786C4.87949 11.9242 4.69249 12.0002 4.49914 12C4.30578 11.9998 4.11891 11.9235 3.97246 11.785L3.798 11.6188C1.27708 9.19759 0 6.97899 0 4.93868C0 3.62886 0.474106 2.37269 1.31802 1.44651C2.16193 0.520324 3.30653 0 4.5 0ZM4.5 3.03919C4.04097 3.03919 3.60074 3.23931 3.27616 3.59554C2.95158 3.95176 2.76923 4.4349 2.76923 4.93868C2.76923 5.44245 2.95158 5.9256 3.27616 6.28182C3.60074 6.63805 4.04097 6.83817 4.5 6.83817C4.95903 6.83817 5.39926 6.63805 5.72384 6.28182C6.04842 5.9256 6.23077 5.44245 6.23077 4.93868C6.23077 4.4349 6.04842 3.95176 5.72384 3.59554C5.39926 3.23931 4.95903 3.03919 4.5 3.03919Z" fill="#822424"/>
</svg>
