<svg width="26" height="26" viewBox="0 0 26 26" fill="none" xmlns="http://www.w3.org/2000/svg">
<path fill-rule="evenodd" clip-rule="evenodd" d="M17.3337 9.74984C17.3337 10.8991 16.8771 12.0013 16.0645 12.814C15.2518 13.6266 14.1496 14.0832 13.0003 14.0832C11.8511 14.0832 10.7489 13.6266 9.9362 12.814C9.12354 12.0013 8.66699 10.8991 8.66699 9.74984C8.66699 8.60057 9.12354 7.49837 9.9362 6.68571C10.7489 5.87305 11.8511 5.4165 13.0003 5.4165C14.1496 5.4165 15.2518 5.87305 16.0645 6.68571C16.8771 7.49837 17.3337 8.60057 17.3337 9.74984ZM15.167 9.74984C15.167 10.3245 14.9387 10.8756 14.5324 11.2819C14.1261 11.6882 13.575 11.9165 13.0003 11.9165C12.4257 11.9165 11.8746 11.6882 11.4683 11.2819C11.0619 10.8756 10.8337 10.3245 10.8337 9.74984C10.8337 9.1752 11.0619 8.6241 11.4683 8.21777C11.8746 7.81144 12.4257 7.58317 13.0003 7.58317C13.575 7.58317 14.1261 7.81144 14.5324 8.21777C14.9387 8.6241 15.167 9.1752 15.167 9.74984Z" fill="#822424"/>
<path fill-rule="evenodd" clip-rule="evenodd" d="M13.0002 1.08325C6.41891 1.08325 1.0835 6.41867 1.0835 12.9999C1.0835 19.5812 6.41891 24.9166 13.0002 24.9166C19.5814 24.9166 24.9168 19.5812 24.9168 12.9999C24.9168 6.41867 19.5814 1.08325 13.0002 1.08325ZM3.25016 12.9999C3.25016 15.2641 4.02258 17.3484 5.31716 19.0037C6.22633 17.8098 7.39922 16.8422 8.74421 16.1766C10.0892 15.5109 11.5699 15.1653 13.0706 15.1666C14.5518 15.1652 16.0139 15.5019 17.3453 16.1511C18.6768 16.8003 19.8425 17.7448 20.7536 18.9127C21.6922 17.6817 22.3242 16.2447 22.5973 14.7209C22.8704 13.197 22.7766 11.6301 22.3239 10.1496C21.8711 8.66922 21.0723 7.31789 19.9936 6.20746C18.9149 5.09703 17.5873 4.25943 16.1206 3.76397C14.6539 3.26851 13.0903 3.12942 11.5592 3.35822C10.0281 3.58702 8.57343 4.17713 7.31566 5.07973C6.05789 5.98232 5.03312 7.17144 4.32616 8.54871C3.6192 9.92598 3.25036 11.4518 3.25016 12.9999ZM13.0002 22.7499C10.7619 22.7533 8.59128 21.9833 6.85549 20.5702C7.55417 19.57 8.48411 18.7534 9.5662 18.1898C10.6483 17.6262 11.8505 17.3324 13.0706 17.3332C14.2754 17.3323 15.4631 17.6188 16.535 18.169C17.6069 18.7191 18.5321 19.5171 19.2337 20.4966C17.4844 21.9555 15.278 22.7531 13.0002 22.7499Z" fill="#822424"/>
</svg>
