<svg width="162" height="47" viewBox="0 0 162 47" fill="none" xmlns="http://www.w3.org/2000/svg">
<g filter="url(#filter0_d_203_399)">
<path d="M5.09858 37.5H48.9028L54 42.5H0L5.09858 37.5Z" fill="#C2867B"/>
<path d="M1.22397 42L5.30283 38H48.6985L52.7763 42H1.22397Z" stroke="#71030C"/>
</g>
<path d="M4.41643 23.8399L3.75385 25.371L51.2462 25.1774L50.9324 24.4972C50.0126 22.5029 48.9194 20.5933 47.6654 18.7903L46.6339 17.5384C45.9407 16.697 45.1788 15.9148 44.3559 15.1998C43.5482 14.4979 42.6845 13.8631 41.7735 13.3017L40.3154 12.4032L39.9145 12.2095C38.0505 11.3086 36.1014 10.5955 34.0962 10.0806L33.1198 9.92233C31.3863 9.64123 29.6331 9.5 27.8769 9.5H25.6154C22.861 9.75716 20.1288 10.346 17.5115 11.2419L15.0615 12.4032C13.1849 13.4311 11.4505 14.6994 9.90204 16.176L9.59615 16.4677L8.82398 17.2608C7.95828 18.1498 7.16972 19.1109 6.46682 20.1335C5.66519 21.2998 4.97851 22.5411 4.41643 23.8399Z" fill="#911726"/>
<path d="M3.75385 26.3387L3 30.0161H26.5577V35.8226L25.8038 37.371L24.4846 39.5H30.5154L29.3846 37.371L28.6308 35.8226V30.0161H52L51.2462 26.3387H3.75385Z" fill="#911726"/>
<path d="M26.137 7.04545V8.5H28.0548V7.04545C29.7134 6.68258 31.3352 6.16828 32.8998 5.50902L34 5.04545L28.0548 4.5H26.137L20 5.04545C21.9131 5.89188 23.9051 6.54758 25.9469 7.00306L26.137 7.04545Z" fill="#E19288"/>
<path d="M66.0945 5.78906H72.3357C74.6631 5.78906 76.5359 6.44076 77.9538 7.74414C79.4219 9.09049 80.156 10.8916 80.156 13.1475C80.156 15.5322 79.404 17.4408 77.9001 18.873C76.4177 20.291 74.4626 21 72.0349 21H66.0945V5.78906ZM72.3034 19.1953C74.0866 19.1953 75.4939 18.6582 76.5251 17.584C77.542 16.5241 78.0505 15.0882 78.0505 13.2764C78.0505 11.529 77.4883 10.1396 76.364 9.1084C75.2683 8.09863 73.8217 7.59375 72.0241 7.59375H68.0818V19.1953H72.3034ZM85.3045 5.84277C85.3045 6.24382 85.1827 6.56608 84.9393 6.80957C84.6958 7.05306 84.3735 7.1748 83.9725 7.1748C83.5714 7.1748 83.2492 7.05306 83.0057 6.80957C82.7622 6.56608 82.6404 6.24382 82.6404 5.84277C82.6404 5.44173 82.7622 5.12305 83.0057 4.88672C83.2492 4.64323 83.5714 4.52148 83.9725 4.52148C84.3735 4.52148 84.6958 4.64323 84.9393 4.88672C85.1827 5.12305 85.3045 5.44173 85.3045 5.84277ZM82.952 10.2578H84.993V21H82.952V10.2578ZM90.4852 11.3213C91.6096 10.4691 92.8986 10.043 94.3524 10.043C97.618 10.043 99.2509 11.8369 99.2509 15.4248V21H97.2098V15.5537C97.2098 14.3148 96.995 13.3945 96.5653 12.793C96.0855 12.1055 95.3013 11.7617 94.2128 11.7617C93.0455 11.7617 92.0679 12.0482 91.2802 12.6211C91.0223 12.8001 90.8147 13.0078 90.6571 13.2441V21H88.6161V10.2578H90.1737L90.4852 11.3213ZM110.308 11.2031C110.687 11.5827 110.984 12.0625 111.199 12.6426C111.421 13.2155 111.532 13.8206 111.532 14.458C111.532 15.0954 111.461 15.8438 111.317 16.7031H103.841C103.998 17.5697 104.349 18.2536 104.894 18.7549C105.438 19.249 106.208 19.4961 107.203 19.4961C108.535 19.4961 109.756 19.2526 110.866 18.7656L111.21 20.3018C110.472 20.7314 109.42 21.0143 108.052 21.1504C107.672 21.1934 107.178 21.2148 106.569 21.2148C105.961 21.2148 105.323 21.0931 104.657 20.8496C103.991 20.6061 103.44 20.248 103.003 19.7754C102.136 18.8372 101.703 17.4622 101.703 15.6504C101.703 14.0605 102.222 12.7285 103.261 11.6543C104.313 10.5801 105.628 10.043 107.203 10.043C108.499 10.043 109.534 10.4297 110.308 11.2031ZM109.588 15.124L109.631 14.5439C109.631 13.2334 109.14 12.3633 108.159 11.9336C107.83 11.7904 107.436 11.7188 106.977 11.7188C106.519 11.7188 106.097 11.8083 105.71 11.9873C105.33 12.1663 105.001 12.4098 104.722 12.7178C104.149 13.348 103.826 14.1501 103.755 15.124H109.588ZM114.629 17.5732C115.961 18.4326 117.314 18.9984 118.689 19.2705C119.155 19.3636 119.628 19.4102 120.107 19.4102C120.587 19.4102 121.081 19.3672 121.59 19.2812C122.106 19.1882 122.56 19.0378 122.954 18.8301C123.842 18.3574 124.286 17.6305 124.286 16.6494C124.286 15.6396 123.541 14.9342 122.052 14.5332C121.615 14.4186 121.149 14.3148 120.655 14.2217L119.119 13.9531C117.164 13.6165 115.8 13.1224 115.026 12.4707C114.31 11.8763 113.952 11.0742 113.952 10.0645C113.952 8.68945 114.611 7.57585 115.929 6.72363C117.103 5.95736 118.489 5.57422 120.086 5.57422C121.619 5.57422 122.997 5.82487 124.222 6.32617C124.659 6.49805 125.113 6.71289 125.586 6.9707L124.856 8.72168C123.817 8.09863 122.592 7.69401 121.182 7.50781C120.738 7.44336 120.308 7.41113 119.893 7.41113C118.94 7.41113 118.099 7.59375 117.368 7.95898C116.516 8.38867 116.09 8.98307 116.09 9.74219C116.09 10.5443 116.631 11.1315 117.712 11.5039C118.199 11.6758 118.75 11.8154 119.366 11.9229L121.278 12.2559C122.89 12.5566 124.007 12.8968 124.63 13.2764C125.253 13.6559 125.711 14.082 126.005 14.5547C126.306 15.0202 126.456 15.6432 126.456 16.4238C126.456 17.1973 126.273 17.8919 125.908 18.5078C125.543 19.1237 125.056 19.6322 124.447 20.0332C123.259 20.8281 121.744 21.2256 119.903 21.2256C118.185 21.2256 116.57 20.8532 115.059 20.1084C114.564 19.8649 114.106 19.5856 113.684 19.2705L114.629 17.5732ZM134.054 21.2148C133.18 21.2148 132.364 21.1361 131.605 20.9785V26.0166H129.564V10.2578H131.121L131.422 11.2891C132.439 10.4583 133.66 10.043 135.085 10.043C136.632 10.043 137.874 10.5299 138.813 11.5039C139.736 12.4707 140.198 13.7383 140.198 15.3066C140.198 17.0612 139.611 18.4899 138.437 19.5928C137.291 20.6742 135.83 21.2148 134.054 21.2148ZM131.605 19.1416C132.614 19.3779 133.459 19.4961 134.14 19.4961C134.82 19.4961 135.404 19.403 135.891 19.2168C136.378 19.0234 136.79 18.7513 137.126 18.4004C137.814 17.6842 138.157 16.696 138.157 15.4355C138.157 14.3757 137.878 13.5091 137.319 12.8359C136.725 12.1198 135.934 11.7617 134.945 11.7617C133.814 11.7617 132.887 12.041 132.163 12.5996C131.934 12.7858 131.748 12.9971 131.605 13.2334V19.1416ZM141.92 15.7256C141.92 14.9092 142.081 14.1536 142.404 13.459C142.726 12.7643 143.163 12.1628 143.714 11.6543C144.881 10.5801 146.285 10.043 147.925 10.043C149.579 10.043 150.958 10.555 152.061 11.5791C153.178 12.6175 153.737 13.9531 153.737 15.5859C153.737 17.1829 153.139 18.5257 151.943 19.6143C150.782 20.6813 149.379 21.2148 147.732 21.2148C146.056 21.2148 144.674 20.7064 143.585 19.6895C142.475 18.6582 141.92 17.3369 141.92 15.7256ZM143.961 15.6074C143.961 16.166 144.061 16.6852 144.262 17.165C144.462 17.6377 144.738 18.0495 145.089 18.4004C145.834 19.1309 146.779 19.4961 147.925 19.4961C148.992 19.4961 149.887 19.1309 150.611 18.4004C151.334 17.6842 151.696 16.7855 151.696 15.7041C151.696 14.5726 151.32 13.6309 150.568 12.8789C149.823 12.1341 148.877 11.7617 147.732 11.7617C146.665 11.7617 145.769 12.1305 145.046 12.8682C144.323 13.5986 143.961 14.5117 143.961 15.6074ZM156.199 11.9121H155.05V10.5801L157.693 8.59277H158.241V10.2578H161.313V11.9121H158.241V16.252C158.241 17.4694 158.394 18.3001 158.702 18.7441C159.01 19.181 159.612 19.4495 160.507 19.5498L160.196 21C158.047 21.2721 156.776 20.4235 156.382 18.4541C156.26 17.8669 156.199 17.2331 156.199 16.5527V11.9121Z" fill="#822424"/>
<path d="M78.3141 32.4297C78.3141 34.4805 77.3701 35.8965 75.482 36.6777L78.109 42H76.0094L73.6363 37.1855C72.9918 37.2832 72.318 37.332 71.6148 37.332H68.0211V42H66.2145V28.1719H71.8883C73.9326 28.1719 75.4592 28.4518 76.4684 29.0117C77.6988 29.6888 78.3141 30.8281 78.3141 32.4297ZM71.859 35.6914C73.3173 35.6914 74.398 35.4896 75.1012 35.0859C75.9671 34.5846 76.4 33.7383 76.4 32.5469C76.4 30.9974 75.3974 30.1185 73.3922 29.9102C72.8128 29.8451 72.2171 29.8125 71.6051 29.8125H68.0211V35.6914H71.859ZM81.0512 28.1719H91.3734V29.8125H82.8578V33.543H90.4457V35.1836H82.8578V40.3594H91.5688V42H81.0512V28.1719ZM94.5109 38.8848C95.7219 39.666 96.9523 40.1803 98.2023 40.4277C98.6255 40.5124 99.0552 40.5547 99.4914 40.5547C99.9276 40.5547 100.377 40.5156 100.839 40.4375C101.308 40.3529 101.721 40.2161 102.079 40.0273C102.887 39.5977 103.29 38.9368 103.29 38.0449C103.29 37.127 102.613 36.4857 101.259 36.1211C100.862 36.0169 100.439 35.9225 99.9895 35.8379L98.593 35.5938C96.8156 35.2878 95.5754 34.8385 94.8723 34.2461C94.2212 33.7057 93.8957 32.9766 93.8957 32.0586C93.8957 30.8086 94.4947 29.7962 95.6926 29.0215C96.7603 28.3249 98.0201 27.9766 99.4719 27.9766C100.865 27.9766 102.118 28.2044 103.232 28.6602C103.629 28.8164 104.042 29.0117 104.472 29.2461L103.808 30.8379C102.864 30.2715 101.751 29.9036 100.468 29.7344C100.064 29.6758 99.6737 29.6465 99.2961 29.6465C98.4302 29.6465 97.6652 29.8125 97.0012 30.1445C96.2264 30.5352 95.8391 31.0755 95.8391 31.7656C95.8391 32.4948 96.3306 33.0286 97.3137 33.3672C97.7564 33.5234 98.2577 33.6504 98.8176 33.748L100.556 34.0508C102.021 34.3242 103.036 34.6335 103.603 34.9785C104.169 35.3236 104.586 35.7109 104.853 36.1406C105.126 36.5638 105.263 37.1302 105.263 37.8398C105.263 38.543 105.097 39.1745 104.765 39.7344C104.433 40.2943 103.99 40.7565 103.437 41.1211C102.356 41.8438 100.979 42.2051 99.3059 42.2051C97.7434 42.2051 96.2753 41.8665 94.9016 41.1895C94.4523 40.9681 94.0357 40.7142 93.6516 40.4277L94.5109 38.8848ZM108.088 28.1719H118.41V29.8125H109.895V33.543H117.482V35.1836H109.895V40.3594H118.605V42H108.088V28.1719ZM133.266 32.4297C133.266 34.4805 132.322 35.8965 130.434 36.6777L133.061 42H130.962L128.589 37.1855C127.944 37.2832 127.27 37.332 126.567 37.332H122.973V42H121.167V28.1719H126.841C128.885 28.1719 130.412 28.4518 131.421 29.0117C132.651 29.6888 133.266 30.8281 133.266 32.4297ZM126.811 35.6914C128.27 35.6914 129.35 35.4896 130.054 35.0859C130.919 34.5846 131.352 33.7383 131.352 32.5469C131.352 30.9974 130.35 30.1185 128.345 29.9102C127.765 29.8451 127.169 29.8125 126.557 29.8125H122.973V35.6914H126.811ZM134.451 28.1719H136.472L140.066 36.1113C140.229 36.4759 140.379 36.8372 140.515 37.1953C140.828 37.9961 141.069 38.6504 141.238 39.1582H141.326C141.417 38.8652 141.518 38.569 141.629 38.2695L141.98 37.3125C142.117 36.9609 142.27 36.6029 142.439 36.2383L146.091 28.1719H148.005L141.658 42.1953H140.798L134.451 28.1719ZM150 28.1719H160.323V29.8125H151.807V33.543H159.395V35.1836H151.807V40.3594H160.518V42H150V28.1719Z" fill="#C87E71"/>
<defs>
<filter id="filter0_d_203_399" x="0" y="37.5" width="54" height="6" filterUnits="userSpaceOnUse" color-interpolation-filters="sRGB">
<feFlood flood-opacity="0" result="BackgroundImageFix"/>
<feColorMatrix in="SourceAlpha" type="matrix" values="0 0 0 0 0 0 0 0 0 0 0 0 0 0 0 0 0 0 127 0" result="hardAlpha"/>
<feOffset dy="1"/>
<feComposite in2="hardAlpha" operator="out"/>
<feColorMatrix type="matrix" values="0 0 0 0 0.443137 0 0 0 0 0.0117647 0 0 0 0 0.0470588 0 0 0 1 0"/>
<feBlend mode="normal" in2="BackgroundImageFix" result="effect1_dropShadow_203_399"/>
<feBlend mode="normal" in="SourceGraphic" in2="effect1_dropShadow_203_399" result="shape"/>
</filter>
</defs>
</svg>
