<svg width="37" height="37" viewBox="0 0 37 37" fill="none" xmlns="http://www.w3.org/2000/svg">
<path d="M12.0252 3.0835H24.9752C29.9085 3.0835 33.9168 7.09183 33.9168 12.0252V24.9752C33.9168 27.3466 32.9748 29.621 31.2979 31.2979C29.621 32.9748 27.3466 33.9168 24.9752 33.9168H12.0252C7.09183 33.9168 3.0835 29.9085 3.0835 24.9752V12.0252C3.0835 9.65369 4.02556 7.37934 5.70245 5.70245C7.37934 4.02556 9.65369 3.0835 12.0252 3.0835ZM11.7168 6.16683C10.2449 6.16683 8.83321 6.75156 7.79239 7.79239C6.75156 8.83321 6.16683 10.2449 6.16683 11.7168V25.2835C6.16683 28.3514 8.64891 30.8335 11.7168 30.8335H25.2835C26.7554 30.8335 28.1671 30.2488 29.2079 29.2079C30.2488 28.1671 30.8335 26.7554 30.8335 25.2835V11.7168C30.8335 8.64891 28.3514 6.16683 25.2835 6.16683H11.7168ZM26.5939 8.47933C27.105 8.47933 27.5952 8.68236 27.9566 9.04376C28.318 9.40516 28.521 9.89532 28.521 10.4064C28.521 10.9175 28.318 11.4077 27.9566 11.7691C27.5952 12.1305 27.105 12.3335 26.5939 12.3335C26.0828 12.3335 25.5927 12.1305 25.2313 11.7691C24.8699 11.4077 24.6668 10.9175 24.6668 10.4064C24.6668 9.89532 24.8699 9.40516 25.2313 9.04376C25.5927 8.68236 26.0828 8.47933 26.5939 8.47933ZM18.5002 10.7918C20.5445 10.7918 22.5052 11.604 23.9508 13.0495C25.3964 14.4951 26.2085 16.4558 26.2085 18.5002C26.2085 20.5445 25.3964 22.5052 23.9508 23.9508C22.5052 25.3964 20.5445 26.2085 18.5002 26.2085C16.4558 26.2085 14.4951 25.3964 13.0495 23.9508C11.604 22.5052 10.7918 20.5445 10.7918 18.5002C10.7918 16.4558 11.604 14.4951 13.0495 13.0495C14.4951 11.604 16.4558 10.7918 18.5002 10.7918ZM18.5002 13.8752C17.2735 13.8752 16.0971 14.3624 15.2298 15.2298C14.3624 16.0971 13.8752 17.2735 13.8752 18.5002C13.8752 19.7268 14.3624 20.9032 15.2298 21.7705C16.0971 22.6379 17.2735 23.1252 18.5002 23.1252C19.7268 23.1252 20.9032 22.6379 21.7705 21.7705C22.6379 20.9032 23.1252 19.7268 23.1252 18.5002C23.1252 17.2735 22.6379 16.0971 21.7705 15.2298C20.9032 14.3624 19.7268 13.8752 18.5002 13.8752Z" fill="white"/>
</svg>
