<svg width="40" height="40" viewBox="0 0 40 40" fill="none" xmlns="http://www.w3.org/2000/svg">
<g clip-path="url(#clip0_203_385)">
<path fill-rule="evenodd" clip-rule="evenodd" d="M36.3998 10.0935C36.4725 9.6524 36.4256 9.19984 36.2639 8.78301C36.1022 8.36617 35.8317 8.00032 35.4806 7.72356C35.1295 7.44681 34.7106 7.26928 34.2675 7.20948C33.8244 7.14968 33.3734 7.20978 32.9615 7.38354L4.46147 19.3835C2.4748 20.2202 2.37313 23.0935 4.46147 23.9602C6.52933 24.8226 8.62734 25.6109 10.7515 26.3235C12.6981 26.9669 14.8215 27.5619 16.5231 27.7302C16.9881 28.2869 17.5731 28.8235 18.1698 29.3135C19.0815 30.0635 20.1781 30.8352 21.3115 31.5752C23.5815 33.0585 26.0998 34.4769 27.7965 35.4002C29.8248 36.5002 32.2531 35.2335 32.6165 33.0219L36.3998 10.0935ZM7.65647 21.6552L32.8631 11.0419L29.3331 32.4419C27.6681 31.5369 25.2698 30.1819 23.1331 28.7852C22.1484 28.153 21.1976 27.4692 20.2848 26.7369C20.0408 26.5376 19.804 26.3297 19.5748 26.1135L26.1765 19.5135C26.4892 19.201 26.665 18.7771 26.6651 18.335C26.6653 17.8928 26.4898 17.4688 26.1773 17.156C25.8648 16.8433 25.4408 16.6675 24.9987 16.6674C24.5566 16.6672 24.1325 16.8427 23.8198 17.1552L16.5915 24.3835C15.3681 24.2269 13.6648 23.7735 11.7948 23.1569C10.4026 22.6931 9.02324 22.1918 7.65813 21.6535L7.65647 21.6552Z" fill="white"/>
</g>
<defs>
<clipPath id="clip0_203_385">
<rect width="40" height="40" fill="white"/>
</clipPath>
</defs>
</svg>
