<svg width="16" height="16" viewBox="0 0 16 16" fill="none" xmlns="http://www.w3.org/2000/svg">
<path d="M8.00011 14.6228C6.69027 14.6228 5.40985 14.2344 4.32075 13.5067C3.23166 12.7789 2.38282 11.7446 1.88156 10.5345C1.38031 9.32436 1.24916 7.99276 1.5047 6.70809C1.76023 5.42342 2.39098 4.24337 3.31718 3.31718C4.24337 2.39098 5.42342 1.76023 6.70809 1.5047C7.99276 1.24916 9.32436 1.38031 10.5345 1.88156C11.7446 2.38282 12.7789 3.23166 13.5067 4.32075C14.2344 5.40985 14.6228 6.69027 14.6228 8.00011C14.6208 9.75596 13.9225 11.4393 12.6809 12.6809C11.4393 13.9225 9.75596 14.6208 8.00011 14.6228ZM8.00011 2.04411C6.82213 2.04411 5.67059 2.39342 4.69113 3.04788C3.71168 3.70233 2.94828 4.63253 2.49748 5.72085C2.04669 6.80916 1.92874 8.00672 2.15855 9.16207C2.38837 10.3174 2.95562 11.3787 3.78858 12.2116C4.62154 13.0446 5.6828 13.6119 6.83815 13.8417C7.9935 14.0715 9.19106 13.9535 10.2794 13.5027C11.3677 13.0519 12.2979 12.2885 12.9523 11.3091C13.6068 10.3296 13.9561 9.1781 13.9561 8.00011C13.9543 6.42102 13.3263 4.90712 12.2097 3.79053C11.0931 2.67395 9.5792 2.04588 8.00011 2.04411Z" fill="#822424"/>
<path d="M9.66683 8.99991C9.66577 9.35321 9.52496 9.69174 9.27514 9.94156C9.02532 10.1914 8.68679 10.3322 8.3335 10.3332V11.0066C8.3335 11.095 8.29838 11.1798 8.23587 11.2423C8.17335 11.3048 8.08857 11.3399 8.00016 11.3399C7.91176 11.3399 7.82697 11.3048 7.76446 11.2423C7.70195 11.1798 7.66683 11.095 7.66683 11.0066V10.3332H6.8335C6.74509 10.3332 6.66031 10.2981 6.59779 10.2356C6.53528 10.1731 6.50016 10.0883 6.50016 9.99991C6.50016 9.91151 6.53528 9.82672 6.59779 9.76421C6.66031 9.7017 6.74509 9.66658 6.8335 9.66658H8.3335C8.51031 9.66658 8.67988 9.59634 8.8049 9.47132C8.92992 9.34629 9.00016 9.17672 9.00016 8.99991C9.00016 8.8231 8.92992 8.65353 8.8049 8.52851C8.67988 8.40348 8.51031 8.33325 8.3335 8.33325H7.66683C7.31321 8.33325 6.97407 8.19277 6.72402 7.94272C6.47397 7.69267 6.3335 7.35353 6.3335 6.99991C6.3335 6.64629 6.47397 6.30715 6.72402 6.0571C6.97407 5.80705 7.31321 5.66658 7.66683 5.66658V4.99325C7.66683 4.90484 7.70195 4.82006 7.76446 4.75754C7.82697 4.69503 7.91176 4.65991 8.00016 4.65991C8.08857 4.65991 8.17335 4.69503 8.23587 4.75754C8.29838 4.82006 8.3335 4.90484 8.3335 4.99325V5.66658H9.16683C9.25523 5.66658 9.34002 5.7017 9.40253 5.76421C9.46504 5.82672 9.50016 5.91151 9.50016 5.99991C9.50016 6.08832 9.46504 6.1731 9.40253 6.23561C9.34002 6.29813 9.25523 6.33325 9.16683 6.33325H7.66683C7.49002 6.33325 7.32045 6.40348 7.19543 6.52851C7.0704 6.65353 7.00016 6.8231 7.00016 6.99991C7.00016 7.17672 7.0704 7.34629 7.19543 7.47132C7.32045 7.59634 7.49002 7.66658 7.66683 7.66658H8.3335C8.68679 7.66763 9.02532 7.80845 9.27514 8.05827C9.52496 8.30809 9.66577 8.64661 9.66683 8.99991Z" fill="#822424"/>
</svg>
