<svg width="20" height="20" viewBox="0 0 20 20" fill="none" xmlns="http://www.w3.org/2000/svg">
<path d="M7 16H12.5C12.7833 16 13.046 15.929 13.288 15.787C13.53 15.645 13.7007 15.4493 13.8 15.2L15.9 10.3C15.9333 10.2167 15.9583 10.1333 15.975 10.05C15.9917 9.96667 16 9.88333 16 9.8V9C16 8.71667 15.904 8.479 15.712 8.287C15.52 8.095 15.2827 7.99933 15 8H10.4L11 4.6C11.0333 4.43333 11.025 4.275 10.975 4.125C10.925 3.975 10.8417 3.84167 10.725 3.725L10 3L5.4 8C5.26667 8.13333 5.16667 8.28333 5.1 8.45C5.03333 8.61667 5 8.8 5 9V14C5 14.55 5.196 15.021 5.588 15.413C5.98 15.805 6.45067 16.0007 7 16ZM10 20C8.61667 20 7.31667 19.7373 6.1 19.212C4.88333 18.6867 3.825 17.9743 2.925 17.075C2.025 16.175 1.31267 15.1167 0.788 13.9C0.263333 12.6833 0.000666667 11.3833 0 10C0 8.61667 0.262667 7.31667 0.788 6.1C1.31333 4.88333 2.02567 3.825 2.925 2.925C3.825 2.025 4.88333 1.31267 6.1 0.788C7.31667 0.263333 8.61667 0.000666667 10 0C11.3833 0 12.6833 0.262667 13.9 0.788C15.1167 1.31333 16.175 2.02567 17.075 2.925C17.975 3.825 18.6877 4.88333 19.213 6.1C19.7383 7.31667 20.0007 8.61667 20 10C20 11.3833 19.7373 12.6833 19.212 13.9C18.6867 15.1167 17.9743 16.175 17.075 17.075C16.175 17.975 15.1167 18.6877 13.9 19.213C12.6833 19.7383 11.3833 20.0007 10 20ZM10 18C12.2333 18 14.125 17.225 15.675 15.675C17.225 14.125 18 12.2333 18 10C18 7.76667 17.225 5.875 15.675 4.325C14.125 2.775 12.2333 2 10 2C7.76667 2 5.875 2.775 4.325 4.325C2.775 5.875 2 7.76667 2 10C2 12.2333 2.775 14.125 4.325 15.675C5.875 17.225 7.76667 18 10 18Z" fill="#822424"/>
</svg>
